<?xml version="1.0" standalone="no"?>
<!DOCTYPE svg PUBLIC "-//W3C//DTD SVG 20010904//EN"
 "http://www.w3.org/TR/2001/REC-SVG-20010904/DTD/svg10.dtd">
<svg version="1.0" xmlns="http://www.w3.org/2000/svg"
 width="384.000000pt" height="384.000000pt" viewBox="0 0 384.000000 384.000000"
 preserveAspectRatio="xMidYMid meet">
<metadata>
Created by potrace 1.14, written by Peter Selinger 2001-2017
</metadata>
<g transform="translate(0.000000,384.000000) scale(0.100000,-0.100000)"
fill="#000000" stroke="none">
<path d="M1814 3608 c-26 -23 -53 -66 -87 -138 -26 -58 -100 -211 -164 -340
-171 -350 -201 -413 -208 -437 -6 -20 -13 -25 -35 -25 -26 0 -204 14 -222 17
-124 24 -323 22 -480 -6 -32 -5 -79 -12 -105 -15 -27 -2 -55 -6 -63 -9 -8 -2
-39 -7 -68 -10 -55 -7 -122 -30 -122 -43 -1 -4 -3 -38 -6 -76 -4 -57 -1 -77
19 -120 31 -66 124 -161 262 -265 104 -79 485 -450 485 -472 0 -5 -22 -56 -49
-112 -28 -56 -73 -169 -101 -252 -28 -82 -83 -231 -122 -329 -66 -167 -71
-185 -71 -255 0 -215 161 -325 388 -266 95 25 287 129 386 209 14 12 41 32 59
46 30 22 68 53 135 108 132 109 218 154 289 151 66 -3 163 -51 231 -116 123
-117 393 -328 470 -369 154 -80 278 -77 373 9 48 45 104 150 117 222 13 70 12
264 -1 364 -8 53 -16 112 -18 131 -19 135 -56 348 -71 408 -24 92 -48 55 206
322 292 306 353 404 350 563 -2 137 -20 148 -217 140 -301 -13 -795 -2 -846
20 -45 19 -75 65 -112 172 -15 44 -47 121 -70 170 -57 119 -260 479 -300 530
-85 109 -163 134 -232 73z m66 -70 c0 -6 -3 -8 -7 -5 -3 4 -16 -1 -27 -10 -21
-18 -21 -18 -2 5 21 24 36 29 36 10z m86 -20 l29 -33 -32 29 c-31 28 -38 36
-30 36 2 0 16 -15 33 -32z m-136 -26 c0 -5 -7 -17 -15 -28 -14 -18 -14 -17 -4
9 12 27 19 34 19 19z m209 -84 c12 -21 20 -38 18 -38 -7 0 -47 65 -47 75 0 10
1 8 29 -37z m-264 -35 c-9 -15 -13 -19 -10 -8 4 11 10 29 13 40 3 11 7 14 9 8
3 -7 -3 -24 -12 -40z m299 -29 c3 -8 2 -12 -4 -9 -6 3 -10 10 -10 16 0 14 7
11 14 -7z m-336 -49 c-6 -14 -13 -23 -15 -21 -5 5 15 46 22 46 3 0 -1 -11 -7
-25z m372 -19 c0 -6 -7 -1 -15 10 -8 10 -15 23 -15 28 0 6 7 1 15 -10 8 -10
15 -23 15 -28z m41 -71 c7 -13 3 -12 -10 5 -11 14 -21 30 -21 35 0 11 14 -7
31 -40z m-453 5 c-7 -10 -14 -18 -15 -16 -6 6 9 36 18 36 5 0 4 -9 -3 -20z
m-38 -70 c-11 -22 -23 -40 -25 -40 -3 0 4 18 15 40 11 22 23 40 25 40 3 0 -4
-18 -15 -40z m530 0 c6 -11 8 -20 6 -20 -3 0 -10 9 -16 20 -6 11 -8 20 -6 20
3 0 10 -9 16 -20z m-574 -87 c-8 -15 -15 -25 -16 -21 0 12 23 58 27 54 3 -2
-2 -17 -11 -33z m617 7 c3 -11 1 -18 -4 -14 -5 3 -9 12 -9 20 0 20 7 17 13 -6z
m41 -76 c5 -14 4 -15 -9 -4 -17 14 -19 20 -6 20 5 0 12 -7 15 -16z m-696 -14
c-7 -10 -14 -18 -15 -16 -6 6 9 36 18 36 5 0 4 -9 -3 -20z m732 -75 c0 -5 -5
-3 -10 5 -5 8 -10 20 -10 25 0 6 5 3 10 -5 5 -8 10 -19 10 -25z m-774 -12 c-8
-15 -15 -25 -16 -21 0 12 23 58 27 54 3 -2 -2 -17 -11 -33z m-32 -68 c-9 -14
-18 -25 -21 -25 -5 0 5 18 20 38 17 22 18 13 1 -13z m845 -25 c0 -10 -3 -8 -9
5 -12 27 -12 43 0 25 5 -8 9 -22 9 -30z m-884 -59 c-3 -12 -10 -21 -15 -21 -4
0 -3 11 3 24 14 29 22 27 12 -3z m925 -31 c6 -11 8 -20 6 -20 -3 0 -10 9 -16
20 -6 11 -8 20 -6 20 3 0 10 -9 16 -20z m-971 -50 c-12 -22 -24 -38 -26 -36
-4 4 37 76 44 76 2 0 -6 -18 -18 -40z m1022 -27 c13 -16 12 -17 -3 -4 -10 7
-18 15 -18 17 0 8 8 3 21 -13z m-1691 3 c0 -3 -4 -8 -10 -11 -5 -3 -10 -1 -10
4 0 6 5 11 10 11 6 0 10 -2 10 -4z m40 0 c0 -2 -7 -7 -16 -10 -8 -3 -12 -2 -9
4 6 10 25 14 25 6z m80 -5 c0 -4 -11 -6 -25 -3 -14 2 -25 6 -25 8 0 2 11 4 25
4 14 0 25 -4 25 -9z m30 -1 c0 -5 -2 -10 -4 -10 -3 0 -8 5 -11 10 -3 6 -1 10
4 10 6 0 11 -4 11 -10z m70 6 c0 -7 -50 -13 -55 -7 -2 4 10 8 26 9 16 1 29 1
29 -2z m40 -6 c0 -5 -4 -10 -10 -10 -5 0 -10 5 -10 10 0 6 5 10 10 10 6 0 10
-4 10 -10z m380 -25 c0 -2 -9 -9 -20 -15 -12 -6 -20 -7 -20 -1 0 5 8 12 18 14
9 3 18 5 20 6 1 0 2 -1 2 -4z m-870 -9 c0 -2 -7 -6 -15 -10 -8 -3 -15 -1 -15
4 0 6 7 10 15 10 8 0 15 -2 15 -4z m40 -2 c0 -8 -19 -13 -24 -6 -3 5 1 9 9 9
8 0 15 -2 15 -3z m697 0 c-3 -3 -12 -4 -19 -1 -8 3 -5 6 6 6 11 1 17 -2 13 -5z
m62 -4 c-10 -7 -49 -2 -49 5 0 2 14 3 31 3 17 -1 25 -4 18 -8z m1211 1 c0 -5
-9 -7 -20 -4 -11 3 -20 7 -20 9 0 2 9 4 20 4 11 0 20 -4 20 -9z m925 0 c-3 -2
-16 -6 -28 -8 -15 -2 -18 0 -9 5 14 9 45 12 37 3z m52 -26 c1 -15 0 -15 -3 -3
-3 9 -13 19 -22 22 -12 3 -12 4 3 3 12 -1 21 -10 22 -22z m-247 1 c0 -2 -7 -7
-16 -10 -8 -3 -12 -2 -9 4 6 10 25 14 25 6z m-2910 -15 c0 -6 -4 -12 -8 -15
-5 -3 -9 1 -9 9 0 8 4 15 9 15 4 0 8 -4 8 -9z m2765 -1 c3 -6 -1 -7 -9 -4 -18
7 -21 14 -7 14 6 0 13 -4 16 -10z m-2768 -72 c2 -17 1 -29 -2 -26 -3 3 -7 20
-10 38 -2 18 -1 29 2 26 4 -3 8 -20 10 -38z m3160 0 c-3 -7 -5 -2 -5 12 0 14
2 19 5 13 2 -7 2 -19 0 -25z m0 -40 c-3 -8 -6 -5 -6 6 -1 11 2 17 5 13 3 -3 4
-12 1 -19z m-3017 -155 c0 -8 -111 101 -121 118 -4 9 21 -13 56 -48 36 -36 65
-67 65 -70z m2980 57 c-6 -11 -13 -20 -16 -20 -2 0 0 9 6 20 6 11 13 20 16 20
2 0 0 -9 -6 -20z m-90 -120 c-34 -39 -67 -73 -74 -77 -6 -4 20 28 58 70 38 42
71 77 73 77 3 0 -23 -32 -57 -70z m-1110 10 c0 -5 -12 2 -26 15 -15 14 -31 22
-37 18 -6 -3 -7 -1 -3 6 5 8 16 5 37 -9 16 -12 29 -25 29 -30z m-1634 -56 c41
-38 37 -36 -21 12 -83 67 -102 85 -59 56 18 -12 54 -42 80 -68z m1194 53 c0
-5 -6 -7 -14 -4 -8 3 -17 1 -20 -6 -2 -7 -5 -5 -5 5 -1 11 6 16 19 15 11 -1
20 -5 20 -10z m666 1 c4 -7 4 -10 -1 -6 -4 4 -14 3 -22 -4 -11 -8 -12 -7 -7 6
7 19 20 21 30 4z m-306 -22 c0 -7 11 -25 25 -40 13 -14 20 -26 15 -26 -10 0
-43 46 -53 73 -4 11 -3 16 3 12 6 -3 10 -12 10 -19z m240 -6 c-14 -11 -32 -20
-40 -20 -8 0 1 9 20 19 45 25 51 26 20 1z m-563 -7 c0 -9 -4 -10 -14 -2 -7 6
-13 12 -13 14 0 1 6 2 13 2 8 0 14 -6 14 -14z m-232 -13 c10 -11 16 -20 13
-20 -3 0 -13 9 -23 20 -10 11 -16 20 -13 20 3 0 13 -9 23 -20z m895 -5 c-7 -9
-27 -25 -44 -37 -26 -18 -24 -15 9 18 39 38 61 50 35 19z m-215 5 c3 -6 -1 -7
-9 -4 -18 7 -21 14 -7 14 6 0 13 -4 16 -10z m-745 -54 c0 -6 -7 -1 -15 10 -8
10 -15 23 -15 28 0 6 7 1 15 -10 8 -10 15 -23 15 -28z m169 41 c-2 -1 -13 -9
-24 -17 -19 -14 -19 -14 -6 3 7 9 18 17 24 17 6 0 8 -1 6 -3z m-49 -19 c0 -4
-4 -8 -9 -8 -6 0 -12 4 -15 8 -3 5 1 9 9 9 8 0 15 -4 15 -9z m-947 -67 c-2 -3
-16 8 -31 24 l-27 28 31 -24 c17 -13 30 -26 27 -28z m2547 45 c0 -2 -8 -10
-17 -17 -16 -13 -17 -12 -4 4 13 16 21 21 21 13z m-1689 -23 c13 -16 12 -17
-3 -4 -10 7 -18 15 -18 17 0 8 8 3 21 -13z m699 1 c0 -2 -7 -4 -15 -4 -8 0
-15 4 -15 10 0 5 7 7 15 4 8 -4 15 -8 15 -10z m140 6 c-8 -5 -19 -10 -25 -10
-5 0 -3 5 5 10 8 5 20 10 25 10 6 0 3 -5 -5 -10z m-741 -40 c-10 -7 -49 -2
-49 5 0 2 14 3 31 3 17 -1 25 -4 18 -8z m51 6 c0 -3 -4 -8 -10 -11 -5 -3 -10
-1 -10 4 0 6 5 11 10 11 6 0 10 -2 10 -4z m-920 -66 c0 -5 -2 -10 -4 -10 -3 0
-8 5 -11 10 -3 6 -1 10 4 10 6 0 11 -4 11 -10z m2340 -24 c0 -2 -8 -10 -17
-17 -16 -13 -17 -12 -4 4 13 16 21 21 21 13z m-178 -189 c-35 -36 -41 -49 -43
-89 -2 -26 -5 -45 -8 -42 -3 2 -4 24 -2 47 2 33 12 52 44 88 23 25 44 44 46
42 3 -2 -14 -22 -37 -46z m-1984 8 c-3 -3 -9 2 -12 12 -6 14 -5 15 5 6 7 -7
10 -15 7 -18z m26 -21 c3 -8 2 -12 -4 -9 -6 3 -10 10 -10 16 0 14 7 11 14 -7z
m76 -98 c0 -6 -9 3 -19 20 -11 18 -24 35 -30 38 -6 4 -11 12 -11 18 0 6 14 -6
30 -27 17 -21 30 -43 30 -49z m-8 -48 c-7 -7 -12 -8 -12 -2 0 14 12 26 19 19
2 -3 -1 -11 -7 -17z m1151 -5 c3 -5 -9 -9 -26 -10 -26 -1 -28 0 -12 7 26 11
33 12 38 3z m-54 -36 c-2 -1 -13 -9 -24 -17 -19 -14 -19 -14 -6 3 7 9 18 17
24 17 6 0 8 -1 6 -3z m-1136 -27 c-3 -11 -10 -23 -16 -27 -5 -3 -8 -2 -5 3 3
5 8 17 11 27 9 24 16 22 10 -3z m763 0 c0 -12 -4 -16 -9 -11 -5 5 -6 14 -3 20
10 15 12 14 12 -9z m444 3 c0 -5 -5 -15 -10 -23 -7 -12 -9 -10 -7 8 1 19 17
33 17 15z m-110 -23 c0 -5 -8 -10 -17 -10 -15 0 -16 2 -3 10 19 12 20 12 20 0z
m-1132 -57 c-16 -39 -32 -54 -18 -19 12 33 19 46 25 46 3 0 -1 -12 -7 -27z
m957 9 c-3 -3 -11 0 -18 7 -9 10 -8 11 6 5 10 -3 15 -9 12 -12z m89 6 c-3 -4
-9 -8 -15 -8 -5 0 -9 4 -9 8 0 5 7 9 15 9 8 0 12 -4 9 -9z m914 -44 c-3 -27
-4 -26 -9 8 -3 22 -1 34 4 29 5 -5 7 -21 5 -37z m-1103 11 c39 -32 29 -32 -15
0 -19 14 -30 25 -24 25 5 -1 23 -12 39 -25z m310 3 c-3 -7 -18 -19 -33 -25
l-27 -12 30 24 c35 29 36 29 30 13z m-225 -48 c0 -10 -38 -1 -45 10 -2 4 7 5
20 2 14 -2 25 -8 25 -12z m130 0 c-18 -12 -30 -13 -30 -2 0 4 10 9 22 9 18 2
20 0 8 -7z m-1112 -32 c-6 -18 -15 -37 -20 -43 -9 -10 -9 -8 11 48 15 38 22
34 9 -5z m-42 -123 c-7 -19 -15 -38 -19 -41 -7 -8 8 50 18 66 12 20 13 10 1
-25z m2080 -1 c1 -9 0 -13 -4 -10 -3 4 -7 14 -8 22 -1 9 0 13 4 10 3 -4 7 -14
8 -22z m6 -53 c2 -17 1 -28 -4 -25 -8 5 -12 54 -4 54 2 0 6 -13 8 -29z m-2131
-72 c-5 -13 -10 -19 -10 -12 -1 15 10 45 15 40 3 -2 0 -15 -5 -28z m-33 -94
c-6 -14 -15 -25 -20 -25 -5 0 -1 11 8 25 9 14 18 25 20 25 2 0 -2 -11 -8 -25z
m899 -49 c-38 -19 -87 -51 -110 -70 -23 -19 -62 -51 -87 -71 l-45 -37 45 42
c25 23 63 56 85 75 42 35 148 95 169 95 6 0 -20 -16 -57 -34z m303 14 c19 -11
32 -19 29 -20 -11 0 -79 30 -79 35 0 9 14 5 50 -15z m80 -46 c0 -2 -9 0 -20 6
-11 6 -20 13 -20 16 0 2 9 0 20 -6 11 -6 20 -13 20 -16z m-1320 -2 c0 -5 -7
-17 -15 -28 -14 -18 -14 -17 -4 9 12 27 19 34 19 19z m1360 -27 c13 -14 21
-25 18 -25 -2 0 -15 11 -28 25 -13 14 -21 25 -18 25 2 0 15 -11 28 -25z m877
-17 c-3 -8 -6 -5 -6 6 -1 11 2 17 5 13 3 -3 4 -12 1 -19z m-827 -23 c11 -13
10 -14 -4 -9 -9 3 -16 10 -16 15 0 13 6 11 20 -6z m830 -30 c0 -19 -4 -35 -8
-35 -4 0 -6 16 -4 35 2 19 6 35 8 35 2 0 4 -16 4 -35z m-2284 -21 c-6 -19 -12
-28 -14 -20 -3 13 14 56 22 56 2 0 -2 -16 -8 -36z m1508 11 c11 -8 16 -15 10
-15 -5 0 -18 7 -28 15 -11 8 -16 15 -10 15 5 0 18 -7 28 -15z m52 -47 l19 -23
-25 20 c-14 11 -27 21 -29 22 -2 2 0 3 6 3 5 0 18 -10 29 -22z m-876 -31 c-19
-17 -44 -38 -55 -46 -11 -7 3 7 30 33 28 25 52 46 55 46 3 0 -11 -15 -30 -33z
m1060 -125 c3 -3 -4 0 -15 6 -11 6 -45 34 -75 62 l-55 51 70 -57 c39 -31 72
-59 75 -62z m-1145 58 c-3 -5 -16 -15 -28 -21 -19 -9 -19 -8 3 10 28 23 34 26
25 11z m-70 -50 c-10 -11 -22 -20 -28 -20 -5 0 1 9 14 20 31 25 37 25 14 0z
m1712 -12 c-3 -8 -6 -5 -6 6 -1 11 2 17 5 13 3 -3 4 -12 1 -19z m-372 -81 c22
-21 -59 30 -88 56 -23 20 -17 18 23 -9 30 -21 60 -42 65 -47z m-1385 69 c0 -6
-132 -77 -136 -73 -3 2 125 76 134 77 1 0 2 -2 2 -4z m-480 -37 c15 -28 5 -23
-15 7 -9 15 -12 23 -6 20 6 -4 16 -16 21 -27z m2199 -16 c-6 -10 -26 -29 -43
-42 -26 -21 -25 -18 9 17 42 45 52 52 34 25z m-2129 -43 c0 -5 -2 -10 -4 -10
-3 0 -8 5 -11 10 -3 6 -1 10 4 10 6 0 11 -4 11 -10z m220 0 c-8 -5 -19 -10
-25 -10 -5 0 -3 5 5 10 8 5 20 10 25 10 6 0 3 -5 -5 -10z m1640 0 c13 -8 13
-10 -2 -10 -9 0 -20 5 -23 10 -8 13 5 13 25 0z m130 -40 c0 -5 -10 -10 -22
-10 -19 0 -20 2 -8 10 19 13 30 13 30 0z"/>
</g>
</svg>
